PathFileType	4	(X/Y/Z)	TVC_32_BWA_07_walk_RCNL2025.trc
DataRate	CameraRate	NumFrames	NumMarkers	Units	OrigDataRate	OrigDataStartFrame	OrigNumFrames
100	100	6	27	mm	100	103	272
Frame#	Time	R_Shoulder			L_Shoulder			C7			J_Notch			R_Elbow			L_Elbow			R_Wrist			L_Wrist			R_Asis			L_Asis			R_Psis			L_Psis			Sacral			Thoracic			Sternum			R_Thigh_Lateral			R_Knee_Lateral			R_Shank_Lateral			R_Ankle_Lateral			R_Heel			R_Toe			L_Thigh_Lateral			L_Knee_Lateral			L_Shank_Lateral			L_Ankle_Lateral			L_Heel			L_Toe		
		X1	Y1	Z1	X2	Y2	Z2	X3	Y3	Z3	X4	Y4	Z4	X5	Y5	Z5	X6	Y6	Z6	X7	Y7	Z7	X8	Y8	Z8	X9	Y9	Z9	X10	Y10	Z10	X11	Y11	Z11	X12	Y12	Z12	X13	Y13	Z13	X14	Y14	Z14	X15	Y15	Z15	X16	Y16	Z16	X17	Y17	Z17	X18	Y18	Z18	X19	Y19	Z19	X20	Y20	Z20	X21	Y21	Z21	X22	Y22	Z22	X23	Y23	Z23	X24	Y24	Z24	X25	Y25	Z25	X26	Y26	Z26	X27	Y27	Z27
103	1.02000000	-96.160774	1450.065308	-238.229828	-180.664322	1439.565430	-603.338440	-178.635971	1504.940063	-410.918457	-28.901077	1396.177734	-433.936432	32.247883	1146.733154	-96.054451	-330.699005	1141.927490	-678.766235	222.211563	950.648834	-140.382336	-312.035278	867.923950	-656.715027	-95.754128	996.209717	-267.128296	-112.873314	1008.750488	-553.802063	-291.634308	1009.719177	-347.359863	-293.664062	1003.916504	-449.849304	-292.649185	1006.817841	-398.604584	-267.616974	1244.513672	-394.404663	-12.074907	1250.281006	-435.798492	-221.443146	618.993652	-221.011642	-211.667923	482.898712	-293.191681	-294.579803	288.617584	-241.678223	-349.640991	80.459572	-322.942993	-413.584290	58.734264	-382.811798	-210.832138	41.227364	-335.318970	-38.764683	693.393433	-640.286865	56.738304	548.182495	-592.508606	60.204483	384.609253	-654.885376	160.245499	120.614906	-598.951538	101.303238	89.880409	-546.334778	304.136261	127.699715	-579.840393
104	1.03000000	-89.356216	1448.920044	-240.024307	-173.866455	1437.725830	-604.959473	-171.705261	1503.295898	-412.804596	-21.590357	1395.063354	-435.651276	41.376278	1146.897095	-97.443817	-325.472931	1140.591675	-678.157410	233.849037	953.401978	-142.467079	-307.650146	866.663483	-654.294128	-88.005791	995.079529	-267.684753	-102.789383	1006.822205	-554.591370	-282.899109	1007.735291	-349.505402	-284.278564	1001.798462	-451.851990	-283.588837	1004.766876	-400.678696	-259.572235	1242.414185	-396.466339	-4.114934	1249.224243	-437.092987	-216.043213	618.255859	-221.545837	-206.606033	481.803711	-293.395386	-291.681305	288.495758	-241.868652	-349.238831	80.858673	-322.855164	-413.453094	59.712330	-382.654877	-210.932251	41.280281	-335.191071	-28.279078	691.092468	-640.248840	66.894142	546.126709	-591.570923	72.224579	382.996124	-654.474976	171.650803	118.903976	-597.828369	112.095215	87.733070	-546.133667	315.214935	126.484184	-576.730286
105	1.04000000	-82.526215	1447.905762	-241.909592	-166.872849	1435.896973	-606.691040	-164.671143	1501.713989	-414.823303	-14.134003	1394.056152	-437.415131	50.305958	1147.096680	-98.872078	-319.869141	1139.177856	-677.652832	245.079521	956.051605	-144.586258	-302.754135	865.330933	-652.081848	-80.163666	993.962524	-268.262726	-92.436493	1004.899841	-555.380005	-273.976624	1005.871704	-351.802002	-274.698364	999.829956	-453.993561	-274.337494	1002.850830	-402.897781	-251.350250	1240.349487	-398.632019	4.035948	1248.281738	-438.402863	-210.618088	617.622314	-222.112244	-201.485306	480.771667	-293.587738	-288.705017	288.478546	-242.040634	-348.789764	81.418716	-322.724304	-413.269714	60.887379	-382.476685	-211.033600	41.314079	-335.046509	-17.927250	688.730042	-640.321167	76.532455	543.758850	-590.766785	83.497665	381.075897	-654.178345	181.884964	116.705154	-596.857239	121.670876	85.193764	-546.124512	325.102539	124.610573	-573.675110
106	1.05000000	-75.663727	1447.034180	-243.885117	-159.664703	1434.093018	-608.536194	-157.524750	1500.209595	-416.973907	-6.525308	1393.169556	-439.225922	59.043484	1147.340698	-100.331566	-313.851746	1137.691284	-677.278015	255.898643	958.583466	-146.729321	-297.338654	863.927338	-650.095673	-72.199570	992.869385	-268.877991	-81.822655	1002.994263	-556.178528	-264.866486	1004.143066	-354.240570	-264.925537	998.024231	-456.269989	-264.896011	1001.083649	-405.255280	-242.945648	1238.335815	-400.900635	12.380735	1247.467651	-439.728821	-205.093811	617.083435	-222.698730	-196.276382	479.817139	-293.771362	-285.611847	288.591431	-242.182968	-348.280640	82.168114	-322.562103	-413.019653	62.285862	-382.281219	-211.122955	41.315151	-334.908569	-7.754499	686.283813	-640.478394	85.590271	541.066101	-590.086182	93.937477	378.810455	-653.971924	190.967590	114.026344	-596.055420	130.076447	82.275253	-546.285950	333.830200	122.088387	-570.759216
107	1.06000000	-68.760910	1446.316284	-245.949844	-152.224762	1432.329956	-610.497375	-150.257324	1498.798096	-419.254944	1.241328	1392.416870	-441.081787	67.594238	1147.636719	-101.814606	-307.386108	1136.139038	-677.059998	266.301559	960.982361	-148.885708	-291.392151	862.456512	-648.352173	-64.083397	991.813110	-269.548370	-70.962395	1001.119507	-557.000610	-255.568802	1002.562256	-356.806976	-254.964462	996.392761	-458.672668	-255.266632	999.477509	-407.739822	-234.354721	1236.391235	-403.269043	20.920311	1246.795410	-441.072937	-199.387573	616.633118	-223.301773	-190.948685	478.953308	-293.948303	-282.376984	288.856049	-242.285187	-347.701202	83.127388	-322.373871	-412.691559	63.930836	-382.065552	-211.188278	41.277996	-334.794373	2.181391	683.729675	-640.699707	94.010483	538.048096	-589.518738	103.470711	376.178162	-653.835510	198.934631	110.894112	-595.438660	137.371689	79.015892	-546.592163	341.444977	118.927559	-568.076294
108	1.07000000	-61.808872	1445.762207	-248.102158	-144.538101	1430.625000	-612.576477	-142.860382	1497.494995	-421.663727	9.170259	1391.810059	-442.981201	75.962257	1147.991821	-103.313866	-300.439758	1134.529785	-677.026306	276.282928	963.232330	-151.044865	-284.900223	860.925232	-646.867432	-55.784664	990.808044	-270.292877	-59.877277	999.294373	-557.862915	-246.084473	1001.140076	-359.482513	-244.822128	994.945923	-461.188538	-245.453300	998.042999	-410.335526	-225.575912	1234.534912	-405.731995	29.653305	1246.277466	-442.438599	-193.424896	616.275208	-223.916870	-185.470779	478.191162	-294.120056	-278.990601	289.288269	-242.339432	-347.044525	84.310127	-322.154572	-412.279449	65.842194	-381.816864	-211.220856	41.207077	-334.710144	11.807939	681.046692	-640.972229	101.746262	534.721252	-589.054932	112.041550	373.179077	-653.752686	205.842346	107.356369	-595.019958	143.632492	75.483269	-547.014893	348.014404	115.138367	-565.720703
